<?xml version="1.0" encoding="UTF-8" standalone="no"?>
<svg
   width="1080"
   zoomAndPan="magnify"
   viewBox="0 0 810 809.999993"
   height="1080"
   preserveAspectRatio="xMidYMid meet"
   version="1.0"
   id="svg64"
   sodipodi:docname="ytm_timestamper_icon.svg"
   inkscape:version="1.4.2 (ebf0e940d0, 2025-05-08)"
   xmlns:inkscape="http://www.inkscape.org/namespaces/inkscape"
   xmlns:sodipodi="http://sodipodi.sourceforge.net/DTD/sodipodi-0.dtd"
   xmlns="http://www.w3.org/2000/svg"
   xmlns:svg="http://www.w3.org/2000/svg">
  <sodipodi:namedview
     id="namedview64"
     pagecolor="#ffffff"
     bordercolor="#000000"
     borderopacity="0.25"
     inkscape:showpageshadow="2"
     inkscape:pageopacity="0.0"
     inkscape:pagecheckerboard="0"
     inkscape:deskcolor="#d1d1d1"
     inkscape:zoom="0.51851852"
     inkscape:cx="440.67857"
     inkscape:cy="504.32143"
     inkscape:window-width="1354"
     inkscape:window-height="731"
     inkscape:window-x="0"
     inkscape:window-y="0"
     inkscape:window-maximized="1"
     inkscape:current-layer="svg64" />
  <defs
     id="defs29">
    <g
       id="g1" />
    <clipPath
       id="5a6c3fceb5">
      <path
         d="M 32 32 L 766 32 L 766 538 L 32 538 Z M 32 32 "
         clip-rule="nonzero"
         id="path1" />
    </clipPath>
    <clipPath
       id="b033bee29b">
      <path
         d="M 22.828125 120.625 L 715.96875 22.414062 L 776.402344 448.960938 L 83.261719 547.171875 Z M 22.828125 120.625 "
         clip-rule="nonzero"
         id="path2" />
    </clipPath>
    <clipPath
       id="b487dda01c">
      <path
         d="M 96.34375 110.207031 L 640.871094 33.054688 C 681.472656 27.304688 719.050781 55.554688 724.800781 96.15625 L 764.40625 375.671875 C 770.15625 416.273438 741.90625 453.851562 701.304688 459.601562 L 156.777344 536.753906 C 116.175781 542.507812 78.601562 514.257812 72.847656 473.65625 L 33.242188 194.140625 C 27.492188 153.539062 55.742188 115.960938 96.34375 110.207031 Z M 96.34375 110.207031 "
         clip-rule="nonzero"
         id="path3" />
    </clipPath>
    <clipPath
       id="2df894b66d">
      <path
         d="M 491.820312 421.691406 L 562.519531 421.691406 L 562.519531 514.320312 L 491.820312 514.320312 Z M 491.820312 421.691406 "
         clip-rule="nonzero"
         id="path4" />
    </clipPath>
    <clipPath
       id="81eb594159">
      <path
         d="M 534.847656 427.164062 L 561.386719 494.742188 C 563.117188 499.148438 562.558594 504.125 559.890625 508.035156 C 557.226562 511.945312 552.796875 514.285156 548.066406 514.285156 L 506.273438 514.285156 C 501.542969 514.285156 497.113281 511.945312 494.449219 508.035156 C 491.78125 504.125 491.222656 499.148438 492.953125 494.742188 L 519.492188 427.164062 C 520.734375 424.007812 523.777344 421.933594 527.171875 421.933594 C 530.5625 421.933594 533.605469 424.007812 534.847656 427.164062 Z M 534.847656 427.164062 "
         clip-rule="nonzero"
         id="path5" />
    </clipPath>
    <clipPath
       id="3da1c34197">
      <path
         d="M 448 456 L 609 456 L 609 611 L 448 611 Z M 448 456 "
         clip-rule="nonzero"
         id="path6" />
    </clipPath>
    <clipPath
       id="d6834b1256">
      <path
         d="M 269.367188 236.957031 L 786.957031 401.121094 L 645.015625 848.652344 L 127.425781 684.488281 Z M 269.367188 236.957031 "
         clip-rule="nonzero"
         id="path7" />
    </clipPath>
    <clipPath
       id="42fa933781">
      <path
         d="M 269.367188 236.957031 L 786.957031 401.121094 L 645.015625 848.652344 L 127.425781 684.488281 Z M 269.367188 236.957031 "
         clip-rule="nonzero"
         id="path8" />
    </clipPath>
    <clipPath
       id="eb3514f3cc">
      <path
         d="M 351 360 L 705 360 L 705 708 L 351 708 Z M 351 360 "
         clip-rule="nonzero"
         id="path9" />
    </clipPath>
    <clipPath
       id="1a82b2b2b8">
      <path
         d="M 269.367188 236.957031 L 786.957031 401.121094 L 645.015625 848.652344 L 127.425781 684.488281 Z M 269.367188 236.957031 "
         clip-rule="nonzero"
         id="path10" />
    </clipPath>
    <clipPath
       id="3e4192bff8">
      <path
         d="M 269.367188 236.957031 L 786.957031 401.121094 L 645.015625 848.652344 L 127.425781 684.488281 Z M 269.367188 236.957031 "
         clip-rule="nonzero"
         id="path11" />
    </clipPath>
    <clipPath
       id="2359726ba3">
      <path
         d="M 135 549 L 499 549 L 499 689 L 135 689 Z M 135 549 "
         clip-rule="nonzero"
         id="path12" />
    </clipPath>
    <clipPath
       id="5b251ecb5a">
      <path
         d="M 269.367188 236.957031 L 786.957031 401.121094 L 645.015625 848.652344 L 127.425781 684.488281 Z M 269.367188 236.957031 "
         clip-rule="nonzero"
         id="path13" />
    </clipPath>
    <clipPath
       id="f10d5bae74">
      <path
         d="M 269.367188 236.957031 L 786.957031 401.121094 L 645.015625 848.652344 L 127.425781 684.488281 Z M 269.367188 236.957031 "
         clip-rule="nonzero"
         id="path14" />
    </clipPath>
    <clipPath
       id="018e06e766">
      <path
         d="M 409 414 L 465 414 L 465 461 L 409 461 Z M 409 414 "
         clip-rule="nonzero"
         id="path15" />
    </clipPath>
    <clipPath
       id="6bb8bde410">
      <path
         d="M 269.367188 236.957031 L 786.957031 401.121094 L 645.015625 848.652344 L 127.425781 684.488281 Z M 269.367188 236.957031 "
         clip-rule="nonzero"
         id="path16" />
    </clipPath>
    <clipPath
       id="90aa5b920c">
      <path
         d="M 269.367188 236.957031 L 786.957031 401.121094 L 645.015625 848.652344 L 127.425781 684.488281 Z M 269.367188 236.957031 "
         clip-rule="nonzero"
         id="path17" />
    </clipPath>
    <clipPath
       id="9771eb1d4d">
      <path
         d="M 586 352 L 621 352 L 621 414 L 586 414 Z M 586 352 "
         clip-rule="nonzero"
         id="path18" />
    </clipPath>
    <clipPath
       id="17b0a21b98">
      <path
         d="M 269.367188 236.957031 L 786.957031 401.121094 L 645.015625 848.652344 L 127.425781 684.488281 Z M 269.367188 236.957031 "
         clip-rule="nonzero"
         id="path19" />
    </clipPath>
    <clipPath
       id="8900fbb68f">
      <path
         d="M 269.367188 236.957031 L 786.957031 401.121094 L 645.015625 848.652344 L 127.425781 684.488281 Z M 269.367188 236.957031 "
         clip-rule="nonzero"
         id="path20" />
    </clipPath>
    <clipPath
       id="0cec1b056f">
      <path
         d="M 654 598 L 709 598 L 709 645 L 654 645 Z M 654 598 "
         clip-rule="nonzero"
         id="path21" />
    </clipPath>
    <clipPath
       id="0fb24aa675">
      <path
         d="M 269.367188 236.957031 L 786.957031 401.121094 L 645.015625 848.652344 L 127.425781 684.488281 Z M 269.367188 236.957031 "
         clip-rule="nonzero"
         id="path22" />
    </clipPath>
    <clipPath
       id="be89874ab6">
      <path
         d="M 269.367188 236.957031 L 786.957031 401.121094 L 645.015625 848.652344 L 127.425781 684.488281 Z M 269.367188 236.957031 "
         clip-rule="nonzero"
         id="path23" />
    </clipPath>
    <clipPath
       id="2093821bdd">
      <path
         d="M 498 645 L 532 645 L 532 707 L 498 707 Z M 498 645 "
         clip-rule="nonzero"
         id="path24" />
    </clipPath>
    <clipPath
       id="8481e38a1f">
      <path
         d="M 269.367188 236.957031 L 786.957031 401.121094 L 645.015625 848.652344 L 127.425781 684.488281 Z M 269.367188 236.957031 "
         clip-rule="nonzero"
         id="path25" />
    </clipPath>
    <clipPath
       id="635156bfc8">
      <path
         d="M 269.367188 236.957031 L 786.957031 401.121094 L 645.015625 848.652344 L 127.425781 684.488281 Z M 269.367188 236.957031 "
         clip-rule="nonzero"
         id="path26" />
    </clipPath>
    <clipPath
       id="c7af585a89">
      <path
         d="M 662 461 L 724 461 L 724 493 L 662 493 Z M 662 461 "
         clip-rule="nonzero"
         id="path27" />
    </clipPath>
    <clipPath
       id="2e3f5ed0ed">
      <path
         d="M 269.367188 236.957031 L 786.957031 401.121094 L 645.015625 848.652344 L 127.425781 684.488281 Z M 269.367188 236.957031 "
         clip-rule="nonzero"
         id="path28" />
    </clipPath>
    <clipPath
       id="eede7f2441">
      <path
         d="M 269.367188 236.957031 L 786.957031 401.121094 L 645.015625 848.652344 L 127.425781 684.488281 Z M 269.367188 236.957031 "
         clip-rule="nonzero"
         id="path29" />
    </clipPath>
  </defs>
  <g
     clip-path="url(#5a6c3fceb5)"
     id="g32">
    <g
       clip-path="url(#b033bee29b)"
       id="g31">
      <g
         clip-path="url(#b487dda01c)"
         id="g30">
        <path
           fill="#000000"
           d="M 22.828125 120.625 L 714.300781 22.652344 L 774.738281 449.199219 L 83.261719 547.171875 Z M 22.828125 120.625 "
           fill-opacity="1"
           fill-rule="nonzero"
           id="path30" />
      </g>
    </g>
  </g>
  <g
     clip-path="url(#2df894b66d)"
     id="g40">
    <g
       clip-path="url(#81eb594159)"
       id="g39">
      <path
         fill="#ffffff"
         d="M 485.273438 407.617188 L 569.066406 407.617188 L 569.066406 514.320312 L 485.273438 514.320312 Z M 485.273438 407.617188 "
         fill-opacity="1"
         fill-rule="nonzero"
         id="path38" />
    </g>
  </g>
  <g
     clip-path="url(#3da1c34197)"
     id="g43">
    <g
       clip-path="url(#d6834b1256)"
       id="g42">
      <g
         clip-path="url(#42fa933781)"
         id="g41">
        <path
           fill="#ffffff"
           d="M 481.925781 610.816406 L 492.398438 555.121094 L 448.003906 517.390625 L 504.207031 510.140625 L 526.375 456.257812 L 550.640625 507.46875 L 608.734375 511.902344 L 567.527344 550.804688 L 581.261719 607.425781 L 531.53125 580.253906 Z M 481.925781 610.816406 "
           fill-opacity="1"
           fill-rule="nonzero"
           id="path40" />
      </g>
    </g>
  </g>
  <g
     clip-path="url(#eb3514f3cc)"
     id="g46">
    <g
       clip-path="url(#1a82b2b2b8)"
       id="g45">
      <g
         clip-path="url(#3e4192bff8)"
         id="g44">
        <path
           stroke-linecap="butt"
           transform="matrix(0.157583, 7.12656, -7.12656, 0.157583, 5038.17863, -3538.585122)"
           fill="none"
           stroke-linejoin="miter"
           d="M 567.830089 651.890005 L 560.051211 650.248474 L 554.621775 656.357866 L 553.77925 648.452804 L 546.290849 645.176608 L 553.548518 641.932133 L 554.350499 633.798142 L 559.678821 639.698139 L 567.662613 637.947467 L 563.697488 644.837978 Z M 567.830089 651.890005 "
           stroke="#000000"
           stroke-width="2.386"
           stroke-opacity="1"
           stroke-miterlimit="4"
           id="path43" />
      </g>
    </g>
  </g>
  <g
     clip-path="url(#2359726ba3)"
     id="g49">
    <g
       clip-path="url(#5b251ecb5a)"
       id="g48">
      <g
         clip-path="url(#f10d5bae74)"
         id="g47">
        <path
           fill="#ff3131"
           d="M 493.125 549.195312 C 497.089844 554.054688 497.394531 553.960938 498.734375 558.035156 L 147.53125 688.726562 C 146.777344 688.984375 145.964844 688.585938 145.707031 687.832031 L 135.960938 659.421875 C 135.703125 658.667969 136.101562 657.855469 136.855469 657.597656 C 185.417969 646.800781 490.640625 550.265625 493.125 549.195312 Z M 493.125 549.195312 "
           fill-opacity="1"
           fill-rule="nonzero"
           id="path46" />
      </g>
    </g>
  </g>
  <g
     clip-path="url(#018e06e766)"
     id="g52">
    <g
       clip-path="url(#6bb8bde410)"
       id="g51">
      <g
         clip-path="url(#90aa5b920c)"
         id="g50">
        <path
           fill="#ff3131"
           d="M 464.375 460.777344 L 423.28125 414.097656 L 409.839844 428.351562 Z M 464.375 460.777344 "
           fill-opacity="1"
           fill-rule="nonzero"
           id="path49" />
      </g>
    </g>
  </g>
  <g
     clip-path="url(#9771eb1d4d)"
     id="g55">
    <g
       clip-path="url(#17b0a21b98)"
       id="g54">
      <g
         clip-path="url(#8900fbb68f)"
         id="g53">
        <path
           fill="#ff3131"
           d="M 586.949219 413.660156 L 620.675781 361.40625 L 603.296875 352.359375 Z M 586.949219 413.660156 "
           fill-opacity="1"
           fill-rule="nonzero"
           id="path52" />
      </g>
    </g>
  </g>
  <g
     clip-path="url(#0cec1b056f)"
     id="g58">
    <g
       clip-path="url(#0fb24aa675)"
       id="g57">
      <g
         clip-path="url(#be89874ab6)"
         id="g56">
        <path
           fill="#ff3131"
           d="M 654.394531 598.171875 L 695.488281 644.855469 L 708.929688 630.597656 Z M 654.394531 598.171875 "
           fill-opacity="1"
           fill-rule="nonzero"
           id="path55" />
      </g>
    </g>
  </g>
  <g
     clip-path="url(#2093821bdd)"
     id="g61">
    <g
       clip-path="url(#8481e38a1f)"
       id="g60">
      <g
         clip-path="url(#635156bfc8)"
         id="g59">
        <path
           fill="#ff3131"
           d="M 531.851562 645.378906 L 498.125 697.632812 L 515.503906 706.683594 Z M 531.851562 645.378906 "
           fill-opacity="1"
           fill-rule="nonzero"
           id="path58" />
      </g>
    </g>
  </g>
  <g
     clip-path="url(#c7af585a89)"
     id="g64">
    <g
       clip-path="url(#2e3f5ed0ed)"
       id="g63">
      <g
         clip-path="url(#eede7f2441)"
         id="g62">
        <path
           fill="#ff3131"
           d="M 662.886719 492.148438 L 723.835938 479.761719 L 718.164062 461.007812 Z M 662.886719 492.148438 "
           fill-opacity="1"
           fill-rule="nonzero"
           id="path61" />
      </g>
    </g>
  </g>
  <text
     xml:space="preserve"
     style="font-style:italic;font-variant:normal;font-weight:bold;font-stretch:normal;font-size:192px;font-family:sans-serif;-inkscape-font-specification:'sans-serif Bold Italic';text-align:center;writing-mode:lr-tb;direction:ltr;text-anchor:middle;fill:#0000ff;fill-opacity:1;stroke-width:0.75"
     x="320.23355"
     y="414.51953"
     id="text64"
     transform="rotate(-13.736431)"><tspan
       sodipodi:role="line"
       id="tspan64"
       style="font-style:italic;font-variant:normal;font-weight:bold;font-stretch:normal;font-size:192px;font-family:sans-serif;-inkscape-font-specification:'sans-serif Bold Italic';text-align:center;text-anchor:middle;stroke-width:0.75"
       x="320.23355"
       y="414.51953">XX:XX</tspan></text>
  <text
     xml:space="preserve"
     style="font-style:normal;font-variant:normal;font-weight:normal;font-stretch:normal;font-size:240px;font-family:sans-serif;-inkscape-font-specification:sans-serif;text-align:center;writing-mode:lr-tb;direction:ltr;text-anchor:middle;fill:#0000ff;fill-opacity:1;stroke-width:0.75"
     x="317.09683"
     y="417.08673"
     id="text64-6"
     transform="rotate(-13.736431)"
     sodipodi:insensitive="true"><tspan
       sodipodi:role="line"
       id="tspan64-7"
       style="font-style:normal;font-variant:normal;font-weight:normal;font-stretch:normal;font-size:240px;font-family:sans-serif;-inkscape-font-specification:sans-serif;text-align:center;text-anchor:middle;stroke-width:0.75"
       x="317.09683"
       y="417.08673">_____</tspan></text>
</svg>
